#!OML:ASF H:\Dans Jumps\Project 1\Capture day 1\Session 1\subject.ASF
:FULLY-SPECIFIED
:DEGREES
266
root 0.546063 22.8473 -1.26088 9.67467 -1.1854 -1.50549
lowerback 9.35886 0.192812 -1.07216
upperback 1.52566 0.1617 0.335372
thorax -3.66623 0.0946702 0.93111
lowerneck -8.27749 -0.25501 0.157411
upperneck 29.3074 -1.08919 2.35675
head 10.7792 -0.216864 0.695877
rclavicle 1.83876e-015 -7.95139e-016
rhumerus -62.5352 4.52716 -88.7374
rradius 42.2019
rwrist 20.6112
rhand -21.5827 -25.3585
rfingers 7.12502
rthumb 4.81172 -55.2839
lclavicle 1.83876e-015 -7.95139e-016
lhumerus -58.4018 -27.1212 97.8064
lradius 37.0854
lwrist 32.2651
lhand -27.9951 -12.1285
lfingers 7.12502
lthumb -1.38119 17.8468
rfemur -40.6033 -6.59931 23.169
rtibia 21.1801
rfoot 16.0326 -4.63205
rtoes 7.24965
lfemur -41.036 14.9257 -20.2629
ltibia 19.9541
lfoot 17.8439 -0.825549
ltoes -17.9565
267
root 0.552008 22.6253 -1.04969 9.38372 -1.33336 -1.4987
lowerback 9.04223 0.21066 -0.93766
upperback 1.63092 0.199507 0.273675
thorax -3.38125 0.10954 0.787321
lowerneck -8.15516 -0.276113 0.210691
upperneck 29.5131 -1.13738 2.36643
head 10.8337 -0.231337 0.686105
rclavicle -5.76476e-015 -2.38542e-015
rhumerus -63.2838 4.35414 -89.2191
rradius 42.0327
rwrist 20.6697
rhand -21.615 -25.3164
rfingers 7.12502
rthumb 4.78056 -55.2425
lclavicle -5.76476e-015 -2.38542e-015
lhumerus -59.8489 -27.2316 99.364
lradius 36.8199
lwrist 32.0352
lhand -27.8166 -12.2667
lfingers 7.12502
lthumb -1.20876 17.7096
rfemur -40.5573 -6.62621 23.0804
rtibia 20.4088
rfoot 16.1679 -4.34977
rtoes 6.85534
lfemur -40.5929 14.7159 -19.9437
ltibia 18.8886
lfoot 18.013 -0.132857
ltoes -19.1193
268
root 0.559054 22.3896 -0.832714 9.02315 -1.51072 -1.50869
lowerback 8.67899 0.235509 -0.774945
upperback 1.7476 0.249079 0.22142
thorax -3.05871 0.130476 0.636922
lowerneck -8.04713 -0.29164 0.276526
upperneck 29.7688 -1.17195 2.34244
head 10.9099 -0.24146 0.663879
rclavicle 2.13694e-015 -4.57205e-015
rhumerus -63.9394 4.0953 -89.5642
rradius 41.7804
rwrist 20.8153
rhand -21.6369 -25.2798
rfingers 7.12502
rthumb 4.75938 -55.2063
lclavicle 2.13694e-015 -4.57205e-015
lhumerus -61.1752 -27.2284 100.807
lradius 36.4897
lwrist 31.638
lhand -27.6387 -12.3825
lfingers 7.12502
lthumb -1.037 17.5948
rfemur -40.4094 -6.71091 23.0406
rtibia 19.8651
rfoot 16.4311 -4.10284
rtoes 6.70116
lfemur -39.9893 14.4312 -19.5192
ltibia 18.0863
lfoot 18.1948 0.755445
ltoes -20.1222
269
root 0.567043 22.1405 -0.610731 8.59602 -1.72124 -1.53555
lowerback 8.26882 0.269889 -0.58815
upperback 1.87758 0.312865 0.184087
thorax -2.69642 0.159009 0.48799
lowerneck -7.96983 -0.302587 0.351124
upperneck 30.0728 -1.1927 2.28186
head 11.0108 -0.247762 0.628682
rclavicle 1.2921e-015 -1.59028e-015
rhumerus -64.4774 3.73947 -89.7408
rradius 41.4373
rwrist 21.0305
rhand -21.6846 -25.2489
rfingers 7.12502
rthumb 4.7133 -55.1765
lclavicle 1.2921e-015 -1.59028e-015
lhumerus -62.3283 -27.1222 102.099
lradius 36.0889
lwrist 31.0997
lhand -27.4846 -12.4957
lfingers 7.12502
lthumb -0.888112 17.4822
rfemur -40.1421 -6.80582 23.0219
rtibia 19.5544
rfoot 16.7563 -3.88487
rtoes 6.77141
lfemur -39.2331 14.0833 -19.0095
ltibia 17.5636
lfoot 18.3617 1.75274
ltoes -20.9289
270
root 0.575877 21.8782 -0.384277 8.10428 -1.95568 -1.56756
lowerback 7.80902 0.306253 -0.392049
upperback 2.02677 0.378984 0.166436
thorax -2.28666 0.189542 0.355341
lowerneck -7.93121 -0.29798 0.423806
upperneck 30.4012 -1.18034 2.18197
head 11.1287 -0.243221 0.583277
rclavicle -1.98785e-015 1.59028e-015
rhumerus -64.8718 3.3128 -89.7462
rradius 41.0077
rwrist 21.2339
rhand -21.7823 -25.2455
rfingers 7.12502
rthumb 4.61902 -55.1751
lclavicle -1.98785e-015 1.59028e-015
lhumerus -63.2592 -26.8905 103.192
lradius 35.6055
lwrist 30.4516
lhand -27.3142 -12.6065
lfingers 7.12502
lthumb -0.723584 17.372
rfemur -39.7386 -6.85578 22.9706
rtibia 19.4851
rfoot 17.057 -3.70775
rtoes 6.99152
lfemur -38.343 13.7552 -18.5014
ltibia 17.3288
lfoot 18.4852 2.62441
ltoes -21.6001
271
root 0.585427 21.6029 -0.153507 7.5406 -2.20613 -1.59444
lowerback 7.31047 0.343496 -0.190567
upperback 2.18854 0.444835 0.165231
thorax -1.84231 0.220985 0.238153
lowerneck -7.90404 -0.27798 0.492455
upperneck 30.7375 -1.13618 2.05209
head 11.2523 -0.228076 0.531085
rclavicle -7.95139e-016 1.98785e-016
rhumerus -65.1345 2.82115 -89.5888
rradius 40.4937
rwrist 21.3908
rhand -21.9375 -25.3038
rfingers 7.12502
rthumb 4.4691 -55.2366
lclavicle -7.95139e-016 1.98785e-016
lhumerus -63.9672 -26.5588 104.076
lradius 35.0533
lwrist 29.7564
lhand -27.0732 -12.5431
lfingers 7.12502
lthumb -0.490762 17.4361
rfemur -39.1798 -6.79143 22.8279
rtibia 19.6737
rfoot 17.2615 -3.60377
rtoes 7.27963
lfemur -37.3318 13.5228 -18.0627
ltibia 17.3865
lfoot 18.5372 3.20878
ltoes -22.112
272
root 0.595782 21.3146 0.0808159 6.90276 -2.45908 -1.60394
lowerback 6.79207 0.380268 0.0208978
upperback 2.35496 0.50815 0.169752
thorax -1.38187 0.252336 0.122904
lowerneck -7.8631 -0.248458 0.542426
upperneck 31.0649 -1.07228 1.91823
head 11.3705 -0.206809 0.482685
rclavicle -3.32964e-015 -5.56597e-015
rhumerus -65.2626 2.26279 -89.2942
rradius 39.877
rwrist 21.4944
rhand -22.1203 -25.4097
rfingers 7.12502
rthumb 4.29265 -55.3462
lclavicle -3.32964e-015 -5.56597e-015
lhumerus -64.4432 -26.1408 104.727
lradius 34.4214
lwrist 29.0641
lhand -26.7781 -12.3633
lfingers 7.12502
lthumb -0.205811 17.6164
rfemur -38.473 -6.58731 22.5624
rtibia 20.1433
rfoot 17.3653 -3.57471
rtoes 7.55604
lfemur -36.2295 13.4508 -17.7544
ltibia 17.7442
lfoot 18.5108 3.33492
ltoes -22.5997
273
root 0.606876 21.013 0.318438 6.17796 -2.69621 -1.59033
lowerback 6.28177 0.412791 0.245219
upperback 2.52112 0.563675 0.1743
thorax -0.925699 0.281087 0.00223038
lowerneck -7.78743 -0.212299 0.579193
upperneck 31.3707 -0.99378 1.7827
head 11.4739 -0.181129 0.437346
rclavicle 4.62174e-015 -4.96962e-015
rhumerus -65.2714 1.66204 -88.9074
rradius 39.1566
rwrist 21.5737
rhand -22.3043 -25.5573
rfingers 7.12502
rthumb 4.11497 -55.4973
lclavicle 4.62174e-015 -4.96962e-015
lhumerus -64.695 -25.6642 105.158
lradius 33.6987
lwrist 28.4206
lhand -26.402 -12.0184
lfingers 7.12502
lthumb 0.157505 17.9612
rfemur -37.6267 -6.24444 22.1695
rtibia 20.9197
rfoot 17.3984 -3.59352
rtoes 7.76609
lfemur -35.0406 13.5358 -17.5792
ltibia 18.4068
lfoot 18.4026 2.94258
ltoes -23.1097
274
root 0.61846 20.6977 0.558873 5.35832 -2.90915 -1.55044
lowerback 5.81282 0.445037 0.483627
upperback 2.67104 0.616797 0.174069
thorax -0.508509 0.309937 -0.130432
lowerneck -7.6397 -0.177816 0.585499
upperneck 31.653 -0.915599 1.66892
head 11.5542 -0.15715 0.40506
rclavicle -6.55989e-015 5.1684e-015
rhumerus -65.1965 1.03329 -88.4684
rradius 38.3134
rwrist 21.7138
rhand -22.5009 -25.7142
rfingers 7.12502
rthumb 3.92512 -55.6578
lclavicle -6.55989e-015 5.1684e-015
lhumerus -64.7428 -25.1271 105.374
lradius 32.8607
lwrist 27.8129
lhand -25.9968 -11.5796
lfingers 7.12502
lthumb 0.548822 18.3994
rfemur -36.6619 -5.79482 21.677
rtibia 22.018
rfoot 17.3951 -3.56207
rtoes 7.83161
lfemur -33.7733 13.7166 -17.4984
ltibia 19.377
lfoot 18.2283 2.05959
ltoes -23.6913
275
root 0.630275 20.3685 0.801284 4.43771 -3.08651 -1.47648
lowerback 5.40897 0.4785 0.720082
upperback 2.80617 0.66916 0.168726
thorax -0.142056 0.339459 -0.266931
lowerneck -7.46074 -0.152712 0.573187
upperneck 31.9408 -0.850483 1.57002
head 11.6313 -0.139508 0.379907
rclavicle -7.72775e-015 7.7526e-015
rhumerus -65.0266 0.390506 -87.9979
rradius 37.3254
rwrist 22.0056
rhand -22.6555 -25.8565
rfingers 7.12502
rthumb 3.7758 -55.8028
lclavicle -7.72775e-015 7.7526e-015
lhumerus -64.5753 -24.5482 105.39
lradius 31.8771
lwrist 27.2083
lhand -25.6379 -11.1541
lfingers 7.12502
lthumb 0.895497 18.8238
rfemur -35.6013 -5.29667 21.1206
rtibia 23.4382
rfoot 17.3569 -3.3478
rtoes 7.60926
lfemur -32.427 13.8931 -17.4647
ltibia 20.6318
lfoot 17.991 0.786949
ltoes -24.2766
276
root 0.641642 20.0252 1.04476 3.41493 -3.22841 -1.37731
lowerback 5.08887 0.515921 0.938429
upperback 2.92379 0.724664 0.168863
thorax 0.160224 0.371053 -0.387971
lowerneck -7.27388 -0.136239 0.54618
upperneck 32.2499 -0.796337 1.47785
head 11.7161 -0.127505 0.358524
rclavicle -1.82509e-014 -1.39646e-014
rhumerus -64.7627 -0.24102 -87.5085
rradius 36.1929
rwrist 22.4474
rhand -22.7556 -25.9592
rfingers 7.12502
rthumb 3.67912 -55.9072
lclavicle -1.82509e-014 -1.39646e-014
lhumerus -64.1842 -23.9101 105.204
lradius 30.7196
lwrist 26.5326
lhand -25.297 -10.7372
lfingers 7.12502
lthumb 1.22468 19.239
rfemur -34.4572 -4.77722 20.5456
rtibia 25.154
rfoot 17.2337 -2.87656
rtoes 7.01606
lfemur -31.0012 14.0039 -17.4309
ltibia 22.1189
lfoot 17.6722 -0.78123
ltoes -24.8708
277
root 0.652245 19.6685 1.28847 2.3031 -3.33635 -1.25431
lowerback 4.85232 0.561275 1.12435
upperback 3.01532 0.789012 0.178352
thorax 0.389339 0.406911 -0.482085
lowerneck -7.09092 -0.13121 0.50956
upperneck 32.5946 -0.759101 1.39386
head 11.817 -0.122875 0.339948
rclavicle -1.36416e-014 2.6339e-015
rhumerus -64.3985 -0.871764 -86.9777
rradius 34.8997
rwrist 23.0785
rhand -22.7697 -25.9995
rfingers 7.12502
rthumb 3.66545 -55.9477
lclavicle -1.36416e-014 2.6339e-015
lhumerus -63.5829 -23.2181 104.835
lradius 29.3787
lwrist 25.7142
lhand -25.0191 -10.3475
lfingers 7.12502
lthumb 1.49313 19.6271
rfemur -33.2433 -4.27777 19.987
rtibia 27.109
rfoot 16.9734 -2.10627
rtoes 6.03205
lfemur -29.5045 14.0031 -17.3771
ltibia 23.7599
lfoot 17.2634 -2.52241
ltoes -25.4541
